<svg width="60" height="60" viewBox="0 0 60 60" fill="none" xmlns="http://www.w3.org/2000/svg">
<path d="M43.7263 25.9711H23.7307C23.3098 25.9803 22.8914 25.9053 22.4999 25.7506C22.1084 25.5959 21.7518 25.3646 21.4509 25.0702C21.15 24.7758 20.911 24.4243 20.7478 24.0362C20.5846 23.6482 20.5005 23.2315 20.5005 22.8106C20.5005 22.3896 20.5846 21.9729 20.7478 21.5849C20.911 21.1969 21.15 20.8454 21.4509 20.551C21.7518 20.2566 22.1084 20.0253 22.4999 19.8706C22.8914 19.7159 23.3098 19.6409 23.7307 19.6501H43.5009L35.1926 11.3404C34.8895 11.049 34.6476 10.7001 34.4809 10.3141C34.3143 9.92805 34.2264 9.51268 34.2222 9.09225C34.2181 8.67183 34.2979 8.25481 34.4569 7.86559C34.616 7.47638 34.851 7.12281 35.1484 6.82556C35.4457 6.52831 35.7994 6.29336 36.1886 6.13447C36.5779 5.97557 36.995 5.89592 37.4154 5.90019C37.8358 5.90445 38.2512 5.99253 38.6371 6.15928C39.0231 6.32604 39.3719 6.56811 39.6632 6.87132L53.0718 20.2799C53.4147 20.6217 53.6744 21.0379 53.8308 21.4961C53.9872 21.9543 54.0361 22.4424 53.9737 22.9226C54.0361 23.4027 53.9872 23.8908 53.8308 24.349C53.6744 24.8073 53.4147 25.2234 53.0718 25.5652L39.6632 38.9738C39.3728 39.2805 39.024 39.526 38.6372 39.6956C38.2504 39.8653 37.8336 39.9557 37.4113 39.9616C36.9889 39.9674 36.5697 39.8886 36.1784 39.7298C35.7871 39.5709 35.4315 39.3353 35.1328 39.0367C34.834 38.7382 34.5982 38.3828 34.439 37.9916C34.2799 37.6003 34.2008 37.1812 34.2064 36.7589C34.212 36.3366 34.3021 35.9196 34.4715 35.5328C34.6409 35.1459 34.8861 34.7968 35.1926 34.5063L43.7263 25.9726V25.9711Z" fill="#00A82D" stroke="#00A82D" stroke-width="3.00642"/>
<g style="mix-blend-mode:multiply">
<path d="M16.6945 40.1193H36.6887C37.5271 40.1193 38.3312 39.7862 38.924 39.1933C39.5169 38.6005 39.8499 37.7964 39.8499 36.958C39.8499 36.1196 39.5169 35.3155 38.924 34.7227C38.3312 34.1298 37.5271 33.7968 36.6887 33.7968H16.9185L25.2267 25.4885C25.5333 25.1981 25.7787 24.8491 25.9482 24.4623C26.1177 24.0755 26.208 23.6586 26.2137 23.2363C26.2194 22.814 26.1405 22.3948 25.9815 22.0035C25.8225 21.6122 25.5867 21.2568 25.2881 20.9581C24.9894 20.6595 24.634 20.4237 24.2427 20.2647C23.8514 20.1058 23.4322 20.0268 23.0099 20.0325C22.5876 20.0382 22.1707 20.1285 21.7839 20.298C21.3971 20.4676 21.0481 20.7129 20.7577 21.0195L7.34757 34.4281C7.0049 34.7701 6.74548 35.1862 6.58934 35.6445C6.43321 36.1027 6.38456 36.5907 6.44715 37.0708C6.3848 37.5506 6.43357 38.0383 6.58969 38.4962C6.74582 38.9542 7.00512 39.3701 7.34757 39.7119L20.7562 53.122C21.0474 53.4252 21.3963 53.6673 21.7822 53.834C22.1682 54.0008 22.5835 54.0889 23.004 54.0931C23.4244 54.0974 23.8414 54.0178 24.2307 53.8589C24.62 53.7 24.9736 53.465 25.271 53.1678C25.5683 52.8705 25.8034 52.5169 25.9624 52.1277C26.1214 51.7385 26.2012 51.3215 26.1971 50.9011C26.193 50.4806 26.105 50.0653 25.9384 49.6793C25.7718 49.2932 25.5298 48.9443 25.2267 48.653L16.6945 40.1193Z" fill="#CEDC00"/>
<path d="M16.6945 40.1193H36.6887C37.5271 40.1193 38.3312 39.7862 38.924 39.1933C39.5169 38.6005 39.8499 37.7964 39.8499 36.958C39.8499 36.1196 39.5169 35.3155 38.924 34.7227C38.3312 34.1298 37.5271 33.7968 36.6887 33.7968H16.9185L25.2267 25.4885C25.5333 25.1981 25.7787 24.8491 25.9482 24.4623C26.1177 24.0755 26.208 23.6586 26.2137 23.2363C26.2194 22.814 26.1405 22.3948 25.9815 22.0035C25.8225 21.6122 25.5867 21.2568 25.2881 20.9581C24.9894 20.6595 24.634 20.4237 24.2427 20.2647C23.8514 20.1058 23.4322 20.0268 23.0099 20.0325C22.5876 20.0382 22.1707 20.1285 21.7839 20.298C21.3971 20.4676 21.0481 20.7129 20.7577 21.0195L7.34757 34.4281C7.0049 34.7701 6.74548 35.1862 6.58934 35.6445C6.43321 36.1027 6.38456 36.5907 6.44715 37.0708C6.3848 37.5506 6.43357 38.0383 6.58969 38.4962C6.74582 38.9542 7.00512 39.3701 7.34757 39.7119L20.7562 53.122C21.0474 53.4252 21.3963 53.6673 21.7822 53.834C22.1682 54.0008 22.5835 54.0889 23.004 54.0931C23.4244 54.0974 23.8414 54.0178 24.2307 53.8589C24.62 53.7 24.9736 53.465 25.271 53.1678C25.5683 52.8705 25.8034 52.5169 25.9624 52.1277C26.1214 51.7385 26.2012 51.3215 26.1971 50.9011C26.193 50.4806 26.105 50.0653 25.9384 49.6793C25.7718 49.2932 25.5298 48.9443 25.2267 48.653L16.6945 40.1193Z" stroke="#CEDC00" stroke-width="3.00642"/>
</g>
</svg>
