<svg width="60" height="60" viewBox="0 0 60 60" fill="none" xmlns="http://www.w3.org/2000/svg">
<rect x="39.1846" y="4" width="48.4623" height="34.5518" rx="3.28271" transform="rotate(90 39.1846 4)" fill="#007620"/>
<rect x="36.9414" y="6.24365" width="43.5263" height="30.0646" rx="2.38722" transform="rotate(90 36.9414 6.24365)" fill="#00A82D"/>
<mask id="mask0" mask-type="alpha" maskUnits="userSpaceOnUse" x="6" y="6" width="32" height="39">
<rect x="37.0884" y="6.3418" width="38.0067" height="30.3199" rx="2.38722" transform="rotate(90 37.0884 6.3418)" fill="#00A82D"/>
</mask>
<g mask="url(#mask0)">
<path fill-rule="evenodd" clip-rule="evenodd" d="M32.6354 9.07066C32.5451 9.07066 32.4538 9.03629 32.385 8.96755L31.9088 8.48934C31.7703 8.35186 31.7703 8.12797 31.9088 7.98853C32.0463 7.85106 32.2711 7.85106 32.4096 7.98853L32.6354 8.21635L33.4367 7.41506C33.5752 7.2766 33.7991 7.2766 33.9375 7.41506C34.076 7.55352 34.076 7.77839 33.9375 7.91587L32.8858 8.96755C32.8171 9.03629 32.7268 9.07066 32.6354 9.07066Z" fill="#010202"/>
<path fill-rule="evenodd" clip-rule="evenodd" d="M32.6353 14.6617C32.545 14.6617 32.4536 14.6273 32.3849 14.5586L31.9087 14.0803C31.7702 13.9429 31.7702 13.719 31.9087 13.5795C32.0461 13.4421 32.271 13.4421 32.4095 13.5795L32.6353 13.8074L33.4366 13.0061C33.5751 12.8676 33.7989 12.8676 33.9374 13.0061C34.0759 13.1445 34.0759 13.3694 33.9374 13.5069L32.8857 14.5586C32.817 14.6273 32.7266 14.6617 32.6353 14.6617Z" fill="#010202"/>
<path fill-rule="evenodd" clip-rule="evenodd" d="M32.6353 20.2529C32.545 20.2529 32.4536 20.2185 32.3849 20.1497L31.9087 19.6715C31.7702 19.534 31.7702 19.3102 31.9087 19.1707C32.0461 19.0332 32.271 19.0332 32.4095 19.1707L32.6353 19.3985L33.4366 18.5973C33.5751 18.4588 33.7989 18.4588 33.9374 18.5973C34.0759 18.7357 34.0759 18.9606 33.9374 19.0981L32.8857 20.1497C32.817 20.2185 32.7266 20.2529 32.6353 20.2529Z" fill="#010202"/>
<path fill-rule="evenodd" clip-rule="evenodd" d="M32.6353 25.844C32.545 25.844 32.4536 25.8096 32.3849 25.7409L31.9087 25.2627C31.7702 25.1252 31.7702 24.9013 31.9087 24.7618C32.0461 24.6244 32.271 24.6244 32.4095 24.7618L32.6353 24.9897L33.4366 24.1884C33.5751 24.0499 33.7989 24.0499 33.9374 24.1884C34.0759 24.3268 34.0759 24.5517 33.9374 24.6892L32.8857 25.7409C32.817 25.8096 32.7266 25.844 32.6353 25.844Z" fill="#010202"/>
<path fill-rule="evenodd" clip-rule="evenodd" d="M32.6353 31.435C32.545 31.435 32.4536 31.4006 32.3849 31.3319L31.9087 30.8537C31.7702 30.7162 31.7702 30.4923 31.9087 30.3529C32.0461 30.2154 32.271 30.2154 32.4095 30.3529L32.6353 30.5807L33.4366 29.7794C33.5751 29.6409 33.7989 29.6409 33.9374 29.7794C34.0759 29.9178 34.0759 30.1427 33.9374 30.2802L32.8857 31.3319C32.817 31.4006 32.7266 31.435 32.6353 31.435Z" fill="#010202"/>
<path fill-rule="evenodd" clip-rule="evenodd" d="M32.6353 37.0262C32.545 37.0262 32.4536 36.9918 32.3849 36.9231L31.9087 36.4448C31.7702 36.3074 31.7702 36.0835 31.9087 35.944C32.0461 35.8066 32.271 35.8066 32.4095 35.944L32.6353 36.1719L33.4366 35.3706C33.5751 35.2321 33.7989 35.2321 33.9374 35.3706C34.0759 35.509 34.0759 35.7339 33.9374 35.8714L32.8857 36.9231C32.817 36.9918 32.7266 37.0262 32.6353 37.0262Z" fill="#010202"/>
<path fill-rule="evenodd" clip-rule="evenodd" d="M32.6353 42.6172C32.545 42.6172 32.4536 42.5828 32.3849 42.5141L31.9087 42.0358C31.7702 41.8984 31.7702 41.6745 31.9087 41.535C32.0461 41.3976 32.271 41.3976 32.4095 41.535L32.6353 41.7629L33.4366 40.9616C33.5751 40.8231 33.7989 40.8231 33.9374 40.9616C34.0759 41.1 34.0759 41.3249 33.9374 41.4624L32.8857 42.5141C32.817 42.5828 32.7266 42.6172 32.6353 42.6172Z" fill="#010202"/>
<path fill-rule="evenodd" clip-rule="evenodd" d="M27.0441 11.8661C26.9538 11.8661 26.8625 11.8318 26.7937 11.763L26.3175 11.2848C26.179 11.1473 26.179 10.9234 26.3175 10.784C26.4549 10.6465 26.6798 10.6465 26.8183 10.784L27.0441 11.0118L27.8454 10.2105C27.9839 10.0721 28.2078 10.0721 28.3462 10.2105C28.4847 10.349 28.4847 10.5739 28.3462 10.7113L27.2945 11.763C27.2258 11.8318 27.1354 11.8661 27.0441 11.8661Z" fill="#010202"/>
<path fill-rule="evenodd" clip-rule="evenodd" d="M27.0441 17.4573C26.9538 17.4573 26.8625 17.4229 26.7937 17.3542L26.3175 16.8759C26.179 16.7385 26.179 16.5146 26.3175 16.3751C26.4549 16.2377 26.6798 16.2377 26.8183 16.3751L27.0441 16.6029L27.8454 15.8017C27.9839 15.6632 28.2078 15.6632 28.3462 15.8017C28.4847 15.9401 28.4847 16.165 28.3462 16.3025L27.2945 17.3542C27.2258 17.4229 27.1354 17.4573 27.0441 17.4573Z" fill="#010202"/>
<path fill-rule="evenodd" clip-rule="evenodd" d="M27.0441 23.0483C26.9538 23.0483 26.8625 23.014 26.7937 22.9452L26.3175 22.467C26.179 22.3295 26.179 22.1056 26.3175 21.9662C26.4549 21.8287 26.6798 21.8287 26.8183 21.9662L27.0441 22.194L27.8454 21.3927C27.9839 21.2543 28.2078 21.2543 28.3462 21.3927C28.4847 21.5312 28.4847 21.7561 28.3462 21.8935L27.2945 22.9452C27.2258 23.014 27.1354 23.0483 27.0441 23.0483Z" fill="#010202"/>
<path fill-rule="evenodd" clip-rule="evenodd" d="M27.0441 28.6394C26.9538 28.6394 26.8625 28.605 26.7937 28.5363L26.3175 28.0581C26.179 27.9206 26.179 27.6967 26.3175 27.5573C26.4549 27.4198 26.6798 27.4198 26.8183 27.5573L27.0441 27.7851L27.8454 26.9838C27.9839 26.8453 28.2078 26.8453 28.3462 26.9838C28.4847 27.1222 28.4847 27.3471 28.3462 27.4846L27.2945 28.5363C27.2258 28.605 27.1354 28.6394 27.0441 28.6394Z" fill="#010202"/>
<path fill-rule="evenodd" clip-rule="evenodd" d="M27.0441 34.2306C26.9538 34.2306 26.8625 34.1962 26.7937 34.1275L26.3175 33.6492C26.179 33.5118 26.179 33.2879 26.3175 33.1484C26.4549 33.011 26.6798 33.011 26.8183 33.1484L27.0441 33.3763L27.8454 32.575C27.9839 32.4365 28.2078 32.4365 28.3462 32.575C28.4847 32.7134 28.4847 32.9383 28.3462 33.0758L27.2945 34.1275C27.2258 34.1962 27.1354 34.2306 27.0441 34.2306Z" fill="#010202"/>
<path fill-rule="evenodd" clip-rule="evenodd" d="M27.0441 39.8215C26.9538 39.8215 26.8625 39.7871 26.7937 39.7184L26.3175 39.2402C26.179 39.1027 26.179 38.8788 26.3175 38.7394C26.4549 38.6019 26.6798 38.6019 26.8183 38.7394L27.0441 38.9672L27.8454 38.1659C27.9839 38.0275 28.2078 38.0275 28.3462 38.1659C28.4847 38.3044 28.4847 38.5292 28.3462 38.6667L27.2945 39.7184C27.2258 39.7871 27.1354 39.8215 27.0441 39.8215Z" fill="#010202"/>
<path fill-rule="evenodd" clip-rule="evenodd" d="M21.4524 9.07066C21.3621 9.07066 21.2708 9.03629 21.202 8.96755L20.7258 8.48934C20.5873 8.35186 20.5873 8.12797 20.7258 7.98853C20.8633 7.85106 21.0881 7.85106 21.2266 7.98853L21.4524 8.21635L22.2537 7.41506C22.3922 7.2766 22.6161 7.2766 22.7545 7.41506C22.893 7.55352 22.893 7.77839 22.7545 7.91587L21.7029 8.96755C21.6341 9.03629 21.5438 9.07066 21.4524 9.07066Z" fill="#010202"/>
<path fill-rule="evenodd" clip-rule="evenodd" d="M21.4526 14.6617C21.3622 14.6617 21.2709 14.6273 21.2022 14.5586L20.7259 14.0803C20.5875 13.9429 20.5875 13.719 20.7259 13.5795C20.8634 13.4421 21.0883 13.4421 21.2267 13.5795L21.4526 13.8074L22.2539 13.0061C22.3923 12.8676 22.6162 12.8676 22.7547 13.0061C22.8931 13.1445 22.8931 13.3694 22.7547 13.5069L21.703 14.5586C21.6342 14.6273 21.5439 14.6617 21.4526 14.6617Z" fill="#010202"/>
<path fill-rule="evenodd" clip-rule="evenodd" d="M21.4526 20.2529C21.3622 20.2529 21.2709 20.2185 21.2022 20.1497L20.7259 19.6715C20.5875 19.534 20.5875 19.3102 20.7259 19.1707C20.8634 19.0332 21.0883 19.0332 21.2267 19.1707L21.4526 19.3985L22.2539 18.5973C22.3923 18.4588 22.6162 18.4588 22.7547 18.5973C22.8931 18.7357 22.8931 18.9606 22.7547 19.0981L21.703 20.1497C21.6342 20.2185 21.5439 20.2529 21.4526 20.2529Z" fill="#010202"/>
<path fill-rule="evenodd" clip-rule="evenodd" d="M21.4526 25.844C21.3622 25.844 21.2709 25.8096 21.2022 25.7409L20.7259 25.2627C20.5875 25.1252 20.5875 24.9013 20.7259 24.7618C20.8634 24.6244 21.0883 24.6244 21.2267 24.7618L21.4526 24.9897L22.2539 24.1884C22.3923 24.0499 22.6162 24.0499 22.7547 24.1884C22.8931 24.3268 22.8931 24.5517 22.7547 24.6892L21.703 25.7409C21.6342 25.8096 21.5439 25.844 21.4526 25.844Z" fill="#010202"/>
<path fill-rule="evenodd" clip-rule="evenodd" d="M21.4526 31.435C21.3622 31.435 21.2709 31.4006 21.2022 31.3319L20.7259 30.8537C20.5875 30.7162 20.5875 30.4923 20.7259 30.3529C20.8634 30.2154 21.0883 30.2154 21.2267 30.3529L21.4526 30.5807L22.2539 29.7794C22.3923 29.6409 22.6162 29.6409 22.7547 29.7794C22.8931 29.9178 22.8931 30.1427 22.7547 30.2802L21.703 31.3319C21.6342 31.4006 21.5439 31.435 21.4526 31.435Z" fill="#010202"/>
<path fill-rule="evenodd" clip-rule="evenodd" d="M21.4526 37.0262C21.3622 37.0262 21.2709 36.9918 21.2022 36.9231L20.7259 36.4448C20.5875 36.3074 20.5875 36.0835 20.7259 35.944C20.8634 35.8066 21.0883 35.8066 21.2267 35.944L21.4526 36.1719L22.2539 35.3706C22.3923 35.2321 22.6162 35.2321 22.7547 35.3706C22.8931 35.509 22.8931 35.7339 22.7547 35.8714L21.703 36.9231C21.6342 36.9918 21.5439 37.0262 21.4526 37.0262Z" fill="#010202"/>
<path fill-rule="evenodd" clip-rule="evenodd" d="M21.4526 42.6172C21.3622 42.6172 21.2709 42.5828 21.2022 42.5141L20.7259 42.0358C20.5875 41.8984 20.5875 41.6745 20.7259 41.535C20.8634 41.3976 21.0883 41.3976 21.2267 41.535L21.4526 41.7629L22.2539 40.9616C22.3923 40.8231 22.6162 40.8231 22.7547 40.9616C22.8931 41.1 22.8931 41.3249 22.7547 41.4624L21.703 42.5141C21.6342 42.5828 21.5439 42.6172 21.4526 42.6172Z" fill="#010202"/>
<path fill-rule="evenodd" clip-rule="evenodd" d="M15.8626 11.8661C15.7723 11.8661 15.6809 11.8318 15.6122 11.763L15.1359 11.2848C14.9975 11.1473 14.9975 10.9234 15.1359 10.784C15.2734 10.6465 15.4983 10.6465 15.6368 10.784L15.8626 11.0118L16.6639 10.2105C16.8023 10.0721 17.0262 10.0721 17.1647 10.2105C17.3032 10.349 17.3032 10.5739 17.1647 10.7113L16.113 11.763C16.0443 11.8318 15.9539 11.8661 15.8626 11.8661Z" fill="#010202"/>
<path fill-rule="evenodd" clip-rule="evenodd" d="M15.8626 17.4573C15.7723 17.4573 15.6809 17.4229 15.6122 17.3542L15.1359 16.8759C14.9975 16.7385 14.9975 16.5146 15.1359 16.3751C15.2734 16.2377 15.4983 16.2377 15.6368 16.3751L15.8626 16.6029L16.6639 15.8017C16.8023 15.6632 17.0262 15.6632 17.1647 15.8017C17.3032 15.9401 17.3032 16.165 17.1647 16.3025L16.113 17.3542C16.0443 17.4229 15.9539 17.4573 15.8626 17.4573Z" fill="#010202"/>
<path fill-rule="evenodd" clip-rule="evenodd" d="M15.8626 23.0483C15.7723 23.0483 15.6809 23.014 15.6122 22.9452L15.1359 22.467C14.9975 22.3295 14.9975 22.1056 15.1359 21.9662C15.2734 21.8287 15.4983 21.8287 15.6368 21.9662L15.8626 22.194L16.6639 21.3927C16.8023 21.2543 17.0262 21.2543 17.1647 21.3927C17.3032 21.5312 17.3032 21.7561 17.1647 21.8935L16.113 22.9452C16.0443 23.014 15.9539 23.0483 15.8626 23.0483Z" fill="#010202"/>
<path fill-rule="evenodd" clip-rule="evenodd" d="M15.8626 28.6394C15.7723 28.6394 15.6809 28.605 15.6122 28.5363L15.1359 28.0581C14.9975 27.9206 14.9975 27.6967 15.1359 27.5573C15.2734 27.4198 15.4983 27.4198 15.6368 27.5573L15.8626 27.7851L16.6639 26.9838C16.8023 26.8453 17.0262 26.8453 17.1647 26.9838C17.3032 27.1222 17.3032 27.3471 17.1647 27.4846L16.113 28.5363C16.0443 28.605 15.9539 28.6394 15.8626 28.6394Z" fill="#010202"/>
<path fill-rule="evenodd" clip-rule="evenodd" d="M15.8626 34.2306C15.7723 34.2306 15.6809 34.1962 15.6122 34.1275L15.1359 33.6492C14.9975 33.5118 14.9975 33.2879 15.1359 33.1484C15.2734 33.011 15.4983 33.011 15.6368 33.1484L15.8626 33.3763L16.6639 32.575C16.8023 32.4365 17.0262 32.4365 17.1647 32.575C17.3032 32.7134 17.3032 32.9383 17.1647 33.0758L16.113 34.1275C16.0443 34.1962 15.9539 34.2306 15.8626 34.2306Z" fill="#010202"/>
<path fill-rule="evenodd" clip-rule="evenodd" d="M15.8626 39.8215C15.7723 39.8215 15.6809 39.7871 15.6122 39.7184L15.1359 39.2402C14.9975 39.1027 14.9975 38.8788 15.1359 38.7394C15.2734 38.6019 15.4983 38.6019 15.6368 38.7394L15.8626 38.9672L16.6639 38.1659C16.8023 38.0275 17.0262 38.0275 17.1647 38.1659C17.3032 38.3044 17.3032 38.5292 17.1647 38.6667L16.113 39.7184C16.0443 39.7871 15.9539 39.8215 15.8626 39.8215Z" fill="#010202"/>
<path fill-rule="evenodd" clip-rule="evenodd" d="M10.2712 9.07066C10.1808 9.07066 10.0895 9.03629 10.0208 8.96755L9.54452 8.48934C9.40606 8.35186 9.40606 8.12797 9.54452 7.98853C9.68199 7.85106 9.90686 7.85106 10.0453 7.98853L10.2712 8.21635L11.0725 7.41506C11.2109 7.2766 11.4348 7.2766 11.5733 7.41506C11.7117 7.55352 11.7117 7.77839 11.5733 7.91587L10.5216 8.96755C10.4528 9.03629 10.3625 9.07066 10.2712 9.07066Z" fill="#010202"/>
<path fill-rule="evenodd" clip-rule="evenodd" d="M10.2709 14.6617C10.1806 14.6617 10.0893 14.6273 10.0205 14.5586L9.54427 14.0803C9.40582 13.9429 9.40582 13.719 9.54427 13.5795C9.68175 13.4421 9.90662 13.4421 10.0451 13.5795L10.2709 13.8074L11.0722 13.0061C11.2107 12.8676 11.4346 12.8676 11.573 13.0061C11.7115 13.1445 11.7115 13.3694 11.573 13.5069L10.5213 14.5586C10.4526 14.6273 10.3623 14.6617 10.2709 14.6617Z" fill="#010202"/>
<path fill-rule="evenodd" clip-rule="evenodd" d="M10.2709 20.2529C10.1806 20.2529 10.0893 20.2185 10.0205 20.1497L9.54427 19.6715C9.40582 19.534 9.40582 19.3102 9.54427 19.1707C9.68175 19.0332 9.90662 19.0332 10.0451 19.1707L10.2709 19.3985L11.0722 18.5973C11.2107 18.4588 11.4346 18.4588 11.573 18.5973C11.7115 18.7357 11.7115 18.9606 11.573 19.0981L10.5213 20.1497C10.4526 20.2185 10.3623 20.2529 10.2709 20.2529Z" fill="#010202"/>
<path fill-rule="evenodd" clip-rule="evenodd" d="M10.2709 25.844C10.1806 25.844 10.0893 25.8096 10.0205 25.7409L9.54427 25.2627C9.40582 25.1252 9.40582 24.9013 9.54427 24.7618C9.68175 24.6244 9.90662 24.6244 10.0451 24.7618L10.2709 24.9897L11.0722 24.1884C11.2107 24.0499 11.4346 24.0499 11.573 24.1884C11.7115 24.3268 11.7115 24.5517 11.573 24.6892L10.5213 25.7409C10.4526 25.8096 10.3623 25.844 10.2709 25.844Z" fill="#010202"/>
<path fill-rule="evenodd" clip-rule="evenodd" d="M10.2709 31.435C10.1806 31.435 10.0893 31.4006 10.0205 31.3319L9.54427 30.8537C9.40582 30.7162 9.40582 30.4923 9.54427 30.3529C9.68175 30.2154 9.90662 30.2154 10.0451 30.3529L10.2709 30.5807L11.0722 29.7794C11.2107 29.6409 11.4346 29.6409 11.573 29.7794C11.7115 29.9178 11.7115 30.1427 11.573 30.2802L10.5213 31.3319C10.4526 31.4006 10.3623 31.435 10.2709 31.435Z" fill="#010202"/>
<path fill-rule="evenodd" clip-rule="evenodd" d="M10.2709 37.0262C10.1806 37.0262 10.0893 36.9918 10.0205 36.9231L9.54427 36.4448C9.40582 36.3074 9.40582 36.0835 9.54427 35.944C9.68175 35.8066 9.90662 35.8066 10.0451 35.944L10.2709 36.1719L11.0722 35.3706C11.2107 35.2321 11.4346 35.2321 11.573 35.3706C11.7115 35.509 11.7115 35.7339 11.573 35.8714L10.5213 36.9231C10.4526 36.9918 10.3623 37.0262 10.2709 37.0262Z" fill="#010202"/>
<path fill-rule="evenodd" clip-rule="evenodd" d="M10.2709 42.6172C10.1806 42.6172 10.0893 42.5828 10.0205 42.5141L9.54427 42.0358C9.40582 41.8984 9.40582 41.6745 9.54427 41.535C9.68175 41.3976 9.90662 41.3976 10.0451 41.535L10.2709 41.7629L11.0722 40.9616C11.2107 40.8231 11.4346 40.8231 11.573 40.9616C11.7115 41.1 11.7115 41.3249 11.573 41.4624L10.5213 42.5141C10.4526 42.5828 10.3623 42.6172 10.2709 42.6172Z" fill="#010202"/>
</g>
<circle cx="21.9087" cy="46.8533" r="1.57054" fill="#007620"/>
<path d="M48.522 31.9007C48.522 29.9971 46.9788 28.4539 45.0752 28.4539L33.1263 28.4539C31.2227 28.4539 29.6795 29.9971 29.6795 31.9007L29.6795 53.9602C29.6795 55.8638 31.2227 57.407 33.1263 57.407L45.0752 57.407C46.9788 57.407 48.522 55.8638 48.522 53.9602L48.522 31.9007Z" fill="#CEDC00" stroke="white" stroke-width="2.29786"/>
<circle cx="39.1011" cy="53.5007" r="1.37872" fill="white"/>
<path fill-rule="evenodd" clip-rule="evenodd" d="M49.5279 14.0754C49.5279 14.6862 49.0335 15.183 48.4232 15.183C47.8101 15.183 47.3157 14.6862 47.3157 14.0754C47.3157 13.4635 47.8101 12.969 48.4232 12.969C49.0335 12.969 49.5279 13.4635 49.5279 14.0754Z" fill="#00A82D"/>
<path fill-rule="evenodd" clip-rule="evenodd" d="M51.0674 11.4095C51.052 11.3912 51.0337 11.3758 51.016 11.3604L50.967 11.3137C50.9584 11.3046 50.9493 11.2977 50.9379 11.2914C49.5081 9.98998 47.3181 10.0413 45.9528 11.4072L45.792 11.5698L45.569 11.7899C45.2998 12.0597 45.2998 12.5011 45.5718 12.7703C45.8433 13.0423 46.2819 13.0423 46.5516 12.7725L46.9343 12.3916C47.804 11.523 49.2161 11.523 50.0847 12.3893L50.3613 12.6568C50.6282 12.9243 51.0628 12.9243 51.3326 12.6545C51.4615 12.5256 51.535 12.3539 51.535 12.1692C51.535 11.9861 51.4637 11.8127 51.3349 11.6832L51.0674 11.4095Z" fill="#00A82D"/>
<path fill-rule="evenodd" clip-rule="evenodd" d="M52.952 10.0389L52.7227 9.80965C52.7227 9.80965 52.7227 9.80737 52.7204 9.80737L52.5368 9.62487C52.5066 9.5935 52.4706 9.5667 52.4353 9.54217C50.1027 7.49474 46.5536 7.55748 44.2946 9.72924C44.2838 9.74064 44.2724 9.74749 44.2615 9.75832L43.8469 10.1729C43.6 10.4199 43.6022 10.8185 43.8492 11.0661C44.0967 11.3136 44.4954 11.3159 44.7429 11.0683L45.1569 10.6537C45.1615 10.6514 45.1638 10.6474 45.1661 10.6452C46.9928 8.88061 49.8888 8.8692 51.7309 10.6092L52.0566 10.9366C52.3035 11.1818 52.7045 11.1818 52.952 10.9349C53.1972 10.6874 53.1995 10.2864 52.952 10.0389Z" fill="#00A82D"/>
<path d="M53.8217 5.30352C54.1113 5.01398 54.5807 5.01398 54.8703 5.30352C55.1598 5.59306 55.1598 6.06249 54.8703 6.35203L43.0745 18.1478C42.785 18.4373 42.3155 18.4373 42.026 18.1478C41.7365 17.8582 41.7365 17.3888 42.026 17.0993L53.8217 5.30352Z" fill="#CEDC00"/>
</svg>
